<?xml version="1.0" standalone="no"?>
<!DOCTYPE svg PUBLIC "-//W3C//DTD SVG 20010904//EN"
 "http://www.w3.org/TR/2001/REC-SVG-20010904/DTD/svg10.dtd">
<svg version="1.0" xmlns="http://www.w3.org/2000/svg"
 width="512.000000pt" height="512.000000pt" viewBox="0 0 512.000000 512.000000"
 preserveAspectRatio="xMidYMid meet">
<metadata>
Created by potrace 1.16, written by Peter Selinger 2001-2019
</metadata>
<g transform="translate(0.000000,512.000000) scale(0.100000,-0.100000)"
fill="#000000" stroke="none">
<path d="M3025 4015 c-76 -50 -111 -100 -146 -212 -17 -54 -38 -112 -45 -130
-23 -52 -22 -53 84 -53 l98 0 28 90 c15 49 37 101 48 115 44 56 32 55 611 55
293 0 536 -2 539 -5 4 -4 -5 -36 -34 -115 -4 -8 -23 -69 -43 -135 -44 -145
-83 -263 -95 -290 -4 -11 -25 -74 -45 -140 -20 -66 -40 -129 -45 -140 -4 -11
-22 -65 -39 -120 -18 -55 -36 -109 -40 -120 -14 -32 -47 -132 -86 -260 -20
-66 -39 -127 -42 -135 -4 -8 -7 -17 -8 -20 -1 -3 -5 -12 -8 -20 -15 -35 -217
-652 -217 -662 0 -5 -6 -24 -14 -41 -7 -18 -39 -112 -71 -210 -52 -161 -60
-180 -93 -207 l-37 -30 -547 0 -547 0 15 53 c16 55 50 158 64 192 5 11 14 38
20 60 6 22 15 49 20 60 10 23 40 121 40 129 0 3 -44 6 -98 6 l-98 0 -38 -122
c-21 -68 -44 -136 -51 -153 -7 -16 -16 -46 -20 -65 -4 -19 -10 -39 -13 -45
-14 -21 -41 -111 -42 -133 0 -33 34 -96 70 -126 l32 -26 634 0 635 0 53 34
c59 38 111 98 122 142 4 16 10 34 14 39 4 6 19 51 35 100 57 186 87 281 101
313 8 18 14 37 14 43 0 6 6 25 14 42 8 18 22 59 31 92 8 33 20 69 25 80 15 35
80 246 80 261 0 8 4 14 9 14 5 0 12 17 16 37 4 21 10 42 13 48 4 5 7 15 8 20
3 14 104 316 114 340 6 16 91 276 96 295 0 3 3 12 6 20 16 43 40 118 78 240
23 74 46 143 51 152 5 10 9 23 9 30 0 7 6 25 14 40 8 15 17 41 21 57 4 17 25
86 47 154 22 67 41 127 42 132 5 19 18 50 27 67 5 10 9 26 9 37 0 30 -41 100
-78 132 l-33 29 -632 -1 -632 0 -50 -34z"/>
<path d="M3450 3847 c-34 -17 -39 -68 -11 -96 20 -20 33 -21 210 -21 208 0
215 2 209 61 -2 25 -11 36 -38 50 -30 16 -58 19 -190 19 -104 0 -163 -4 -180
-13z"/>
<path d="M1275 3417 c-56 -26 -71 -96 -30 -145 l24 -29 249 -8 c219 -6 253 -5
280 9 38 20 52 44 52 89 0 22 -8 43 -25 61 -22 24 -31 26 -102 26 -43 0 -154
2 -248 5 -133 5 -177 3 -200 -8z"/>
<path d="M2550 3340 c-304 -81 -500 -336 -500 -648 0 -106 17 -186 61 -282
l30 -65 -60 -173 c-44 -125 -56 -172 -46 -172 7 0 90 25 183 55 l169 55 56
-25 c115 -53 275 -69 412 -40 39 8 108 33 155 57 115 56 239 178 292 288 54
109 68 175 68 312 0 188 -49 313 -176 447 -130 138 -270 202 -459 208 -87 2
-126 -1 -185 -17z m335 -116 c65 -23 158 -78 206 -121 54 -49 123 -156 150
-233 27 -79 32 -236 10 -315 -66 -233 -267 -399 -501 -412 -109 -7 -187 8
-276 52 l-71 34 -104 -33 c-57 -19 -105 -33 -106 -32 -1 1 14 48 33 104 l36
101 -20 28 c-63 90 -96 241 -80 372 26 214 185 397 403 463 77 23 245 19 320
-8z"/>
<path d="M2445 2998 c-35 -27 -64 -92 -65 -140 0 -84 92 -242 202 -343 60 -56
184 -123 266 -145 90 -23 202 38 202 111 0 16 1 32 1 36 2 10 -131 83 -151 83
-8 0 -34 -19 -57 -42 l-44 -43 -55 29 c-31 16 -75 48 -99 71 -44 44 -95 116
-95 136 0 6 14 27 30 46 17 18 30 37 30 41 0 5 -13 44 -29 87 -18 50 -35 82
-47 86 -34 13 -61 9 -89 -13z"/>
<path d="M813 3036 c-31 -14 -63 -60 -63 -90 0 -28 22 -63 50 -79 25 -15 67
-17 347 -17 349 0 356 1 385 59 14 29 15 39 5 64 -7 17 -25 40 -41 51 -26 20
-41 21 -339 23 -250 2 -318 0 -344 -11z"/>
<path d="M465 2648 c-34 -18 -45 -40 -45 -88 0 -37 5 -51 26 -71 l26 -24 615
0 615 0 29 33 c33 36 37 76 13 110 -37 53 -27 52 -666 52 -410 -1 -599 -4
-613 -12z"/>
<path d="M1149 2239 c-52 -56 -33 -129 39 -149 21 -5 140 -10 272 -10 254 0
261 2 289 57 19 37 12 64 -23 99 l-34 34 -257 0 -257 0 -29 -31z"/>
<path d="M2800 1612 c-19 -9 -56 -38 -81 -64 -145 -145 -25 -353 172 -298 76
21 179 146 179 217 0 48 -51 122 -102 149 -37 19 -125 17 -168 -4z m136 -134
c-10 -49 -34 -78 -83 -100 -50 -22 -73 -18 -73 13 0 49 78 119 134 119 27 0
28 -2 22 -32z"/>
</g>
</svg>
